<svg xmlns="http://www.w3.org/2000/svg" xmlns:xlink="http://www.w3.org/1999/xlink" width="500" zoomAndPan="magnify" viewBox="0 0 375 374.999991" height="500" preserveAspectRatio="xMidYMid meet" version="1.0"><defs><g/><clipPath id="106e1f288c"><path d="M 57.128906 91.652344 L 317.867188 91.652344 L 317.867188 356.046875 L 57.128906 356.046875 Z M 57.128906 91.652344 " clip-rule="nonzero"/></clipPath><clipPath id="a0b8ccffcf"><path d="M 116 55 L 147 55 L 147 70 L 116 70 Z M 116 55 " clip-rule="nonzero"/></clipPath><clipPath id="5bc82847ad"><path d="M 131.289062 43.839844 L 149.847656 62.402344 L 131.289062 80.964844 L 112.726562 62.402344 Z M 131.289062 43.839844 " clip-rule="nonzero"/></clipPath><clipPath id="ee5ccee026"><path d="M 131.289062 43.839844 L 149.847656 62.402344 L 131.289062 80.964844 L 112.726562 62.402344 Z M 131.289062 43.839844 " clip-rule="nonzero"/></clipPath></defs><g clip-path="url(#106e1f288c)"><path fill="#ffffff" d="M 314.417969 200.839844 C 314.152344 200.820312 313.882812 200.828125 313.609375 200.875 L 311.832031 198.527344 L 295.21875 165.730469 L 301.515625 159.644531 C 302.402344 160.285156 303.554688 160.53125 304.6875 160.210938 C 304.789062 160.179688 304.890625 160.144531 304.988281 160.109375 Z M 313.082031 228.511719 C 312.65625 227.9375 312.074219 227.5 311.414062 227.25 L 313.816406 208.175781 C 314.265625 208.222656 314.726562 208.1875 315.1875 208.058594 C 315.230469 208.046875 315.269531 208.027344 315.3125 208.015625 Z M 309.972656 257.078125 C 309.261719 256.796875 308.496094 256.644531 307.710938 256.644531 L 310.519531 234.351562 C 310.71875 234.332031 310.917969 234.296875 311.117188 234.238281 C 311.664062 234.085938 312.144531 233.8125 312.542969 233.460938 Z M 306.039062 256.875 C 305.140625 257.128906 304.347656 257.574219 303.683594 258.148438 L 283.898438 230.816406 C 284.945312 230.160156 285.59375 229.015625 285.621094 227.785156 L 306.449219 230.308594 C 306.402344 230.761719 306.433594 231.230469 306.566406 231.699219 C 306.945312 233.039062 308.019531 233.996094 309.289062 234.285156 L 306.457031 256.773438 C 306.316406 256.804688 306.179688 256.835938 306.039062 256.875 Z M 289.722656 290.988281 L 289.324219 287.429688 L 303.722656 267.449219 C 303.957031 267.652344 304.207031 267.832031 304.46875 267.996094 L 292.117188 291.960938 C 291.441406 291.335938 290.59375 290.976562 289.722656 290.988281 Z M 267.46875 318.792969 C 267.332031 318.640625 267.1875 318.496094 267.03125 318.359375 L 284.371094 294.304688 L 286.519531 294.65625 C 286.523438 295.039062 286.578125 295.429688 286.691406 295.816406 C 286.941406 296.699219 287.4375 297.433594 288.058594 297.949219 Z M 240.320312 336.285156 C 239.867188 335.507812 239.152344 334.933594 238.324219 334.648438 L 239.054688 332.503906 L 257.421875 325.597656 C 257.53125 325.828125 257.65625 326.046875 257.789062 326.257812 Z M 200.875 348.074219 C 200.761719 347.707031 200.617188 347.355469 200.441406 347.023438 L 216.179688 341.105469 L 233.496094 338.730469 C 233.519531 338.867188 233.546875 339.003906 233.585938 339.140625 C 233.589844 339.15625 233.59375 339.167969 233.597656 339.179688 Z M 170.300781 348.292969 C 170.324219 348 170.320312 347.703125 170.269531 347.402344 L 192.332031 344.378906 C 190.230469 345.394531 188.910156 347.515625 188.875 349.808594 Z M 139.441406 339.691406 C 139.9375 338.472656 140.046875 337.082031 139.65625 335.714844 C 139.480469 335.09375 139.21875 334.527344 138.882812 334.015625 L 155.382812 322.898438 L 165.535156 344.472656 C 164.375 344.835938 163.519531 345.722656 163.148438 346.796875 Z M 126.21875 306.191406 L 141.699219 302.320312 C 141.722656 302.441406 141.75 302.558594 141.785156 302.675781 C 142.375 304.765625 144.335938 306.039062 146.164062 305.519531 C 146.476562 305.433594 146.761719 305.296875 147.019531 305.125 L 154.851562 321.769531 L 138.101562 333.058594 C 136.765625 331.714844 134.839844 331.03125 132.886719 331.308594 Z M 103.9375 308.816406 L 101.375 306.519531 L 112.53125 259.398438 L 121.503906 293.210938 Z M 124.964844 306.25 L 106.28125 310.917969 L 104.121094 308.984375 L 121.574219 293.476562 Z M 131.691406 331.601562 C 131.152344 331.792969 130.65625 332.054688 130.207031 332.371094 L 106.5 311.117188 L 125.027344 306.488281 Z M 103.203125 311.6875 C 103.179688 311.570312 103.15625 311.453125 103.121094 311.339844 C 103.011719 310.957031 102.859375 310.601562 102.664062 310.277344 L 103.199219 309.804688 L 104.839844 311.277344 Z M 100.871094 308.660156 L 101.054688 307.882812 L 103.015625 309.640625 L 102.53125 310.070312 C 102.097656 309.429688 101.519531 308.945312 100.871094 308.660156 Z M 98.738281 308.496094 C 98.402344 308.589844 98.097656 308.742188 97.820312 308.933594 L 93.261719 300.894531 L 100.84375 307.695312 L 100.636719 308.570312 C 100.03125 308.355469 99.378906 308.3125 98.738281 308.496094 Z M 91.359375 297.539062 L 87.625 290.957031 C 87.847656 289.984375 87.832031 288.945312 87.542969 287.917969 C 87.21875 286.769531 86.582031 285.789062 85.757812 285.042969 L 108.042969 256.582031 C 109.1875 257.449219 110.628906 257.90625 112.113281 257.816406 L 112.398438 258.898438 L 101.167969 306.332031 Z M 86.570312 293.246094 C 87.003906 292.660156 87.332031 292 87.535156 291.296875 L 90.78125 297.023438 Z M 63.179688 247.851562 C 64.550781 247.152344 65.347656 245.664062 65.160156 244.128906 L 93.429688 235.496094 L 106.796875 248.050781 C 105.71875 249.527344 105.300781 251.464844 105.839844 253.359375 C 106.097656 254.273438 106.550781 255.078125 107.136719 255.746094 L 84.769531 284.3125 C 84.382812 284.082031 83.96875 283.894531 83.539062 283.753906 Z M 79.957031 283.683594 C 79.777344 283.734375 79.605469 283.792969 79.433594 283.859375 L 62.507812 248.117188 C 62.664062 248.070312 62.8125 248.015625 62.957031 247.953125 L 83.203125 283.65625 C 82.171875 283.382812 81.058594 283.371094 79.957031 283.683594 Z M 61.933594 213.707031 C 62.898438 213.921875 63.929688 213.910156 64.945312 213.621094 C 65.496094 213.464844 66 213.238281 66.464844 212.957031 L 62.03125 240.921875 C 61.777344 240.886719 61.515625 240.875 61.25 240.894531 Z M 71.953125 169.011719 C 72.378906 169.300781 72.855469 169.492188 73.34375 169.570312 L 70.222656 189.242188 L 63.882812 201.597656 C 63.773438 201.585938 63.660156 201.582031 63.546875 201.574219 Z M 97.433594 133.769531 C 97.683594 134.085938 97.957031 134.378906 98.257812 134.636719 L 90.910156 148.945312 L 76.253906 163.433594 C 75.917969 162.953125 75.492188 162.5625 75.019531 162.285156 Z M 131.617188 107.332031 C 131.730469 107.660156 131.886719 107.964844 132.078125 108.242188 L 120.523438 119.667969 L 106.90625 125.957031 C 106.71875 125.742188 106.519531 125.542969 106.308594 125.359375 Z M 162.957031 98.894531 C 162.992188 99.089844 163.039062 99.28125 163.089844 99.472656 C 163.136719 99.628906 163.1875 99.785156 163.246094 99.9375 L 151.167969 105.511719 L 138.765625 106.492188 C 138.808594 106.046875 138.773438 105.585938 138.644531 105.128906 C 138.574219 104.875 138.476562 104.636719 138.359375 104.414062 Z M 213.722656 99.9375 C 213.679688 100.148438 213.652344 100.359375 213.644531 100.578125 L 192.535156 102.242188 L 175.101562 98.523438 C 175.128906 98.304688 175.140625 98.085938 175.144531 97.863281 Z M 254.105469 114.222656 C 253.945312 114.570312 253.816406 114.929688 253.722656 115.300781 L 222.902344 108.722656 L 219.734375 103.484375 C 220.234375 103.050781 220.609375 102.492188 220.816406 101.871094 Z M 301.488281 153.707031 C 301.316406 153.835938 301.15625 153.976562 301.011719 154.128906 L 286.25 143.664062 C 286.503906 142.964844 286.550781 142.179688 286.332031 141.410156 C 285.777344 139.449219 283.738281 138.3125 281.78125 138.867188 C 281.757812 138.875 281.734375 138.882812 281.710938 138.890625 L 265.539062 118.636719 C 265.570312 118.535156 265.601562 118.4375 265.628906 118.339844 Z M 284.925781 145.410156 C 285.46875 145.019531 285.890625 144.492188 286.15625 143.894531 L 300.847656 154.3125 C 300.097656 155.214844 299.792969 156.457031 300.136719 157.671875 C 300.34375 158.410156 300.769531 159.035156 301.320312 159.492188 L 295.105469 165.503906 Z M 293.503906 167.050781 C 292.082031 165.417969 289.851562 164.605469 287.628906 165.066406 L 280.226562 151.78125 L 281.957031 146.003906 C 282.542969 146.140625 283.171875 146.136719 283.792969 145.957031 C 284.125 145.863281 284.4375 145.722656 284.71875 145.546875 L 294.917969 165.683594 Z M 293.8125 174.726562 C 294.898438 173.25 295.316406 171.304688 294.777344 169.402344 C 294.546875 168.589844 294.160156 167.859375 293.664062 167.238281 L 295.035156 165.910156 L 310.996094 197.425781 Z M 310.632812 205.515625 C 310.6875 205.703125 310.757812 205.875 310.835938 206.046875 L 299.53125 214.175781 L 282.253906 187.328125 L 286.226562 176.625 C 287.527344 177.242188 289.050781 177.414062 290.546875 176.992188 C 291.476562 176.726562 292.296875 176.257812 292.972656 175.652344 L 312.386719 201.296875 C 310.929688 202.109375 310.160156 203.839844 310.632812 205.515625 Z M 300.195312 215.210938 L 311.523438 207.0625 C 311.839844 207.390625 312.210938 207.65625 312.621094 207.847656 L 310.207031 227.007812 C 309.84375 227 309.472656 227.042969 309.105469 227.148438 C 308.761719 227.246094 308.441406 227.394531 308.152344 227.574219 Z M 285.203125 225.992188 L 299.996094 215.351562 L 307.949219 227.714844 C 307.171875 228.277344 306.648438 229.125 306.484375 230.0625 L 285.613281 227.535156 C 285.601562 227.257812 285.5625 226.972656 285.480469 226.695312 C 285.410156 226.445312 285.316406 226.210938 285.203125 225.992188 Z M 277.628906 199.785156 L 282.144531 187.617188 L 299.332031 214.320312 L 284.453125 225.015625 C 283.734375 224.339844 282.757812 223.964844 281.742188 224.023438 Z M 301.808594 264.460938 C 301.824219 264.519531 301.839844 264.574219 301.859375 264.628906 L 287.578125 271.980469 L 285.550781 254 L 301.734375 261.386719 C 301.503906 262.367188 301.511719 263.421875 301.808594 264.460938 Z M 287.609375 272.242188 L 301.941406 264.867188 C 302.160156 265.484375 302.472656 266.046875 302.859375 266.546875 L 289.117188 285.613281 Z M 263.554688 316.859375 L 263.027344 290.789062 L 283.015625 294.078125 L 266.03125 317.644531 C 265.277344 317.214844 264.433594 316.941406 263.554688 316.859375 Z M 244.847656 315.535156 L 257.183594 320.925781 C 256.796875 322.019531 256.714844 323.234375 257.011719 324.4375 L 239.570312 330.996094 Z M 236.3125 332.222656 L 233.304688 310.492188 L 244.621094 315.4375 L 239.273438 331.109375 Z M 236.628906 334.488281 L 236.488281 333.46875 L 238.757812 332.617188 L 238.085938 334.582031 C 237.621094 334.453125 237.128906 334.417969 236.628906 334.488281 Z M 233.707031 334.515625 L 234.5625 335.496094 C 233.777344 336.261719 233.359375 337.359375 233.464844 338.488281 L 217.21875 340.714844 Z M 195.023438 343.757812 C 194.992188 343.757812 194.960938 343.757812 194.925781 343.757812 L 197.132812 300.636719 C 198.03125 300.796875 198.972656 300.765625 199.90625 300.5 C 201.007812 300.1875 201.953125 299.59375 202.6875 298.820312 L 232.847656 333.527344 L 211.722656 341.46875 Z M 196.113281 343.859375 L 210.6875 341.859375 L 199.738281 345.976562 C 198.816406 344.867188 197.527344 344.117188 196.113281 343.859375 Z M 148.5 301.230469 L 192.097656 294.9375 C 192.125 295.378906 192.195312 295.824219 192.324219 296.265625 C 192.34375 296.339844 192.367188 296.410156 192.390625 296.480469 L 155.058594 321.632812 L 147.222656 304.976562 C 148.25 304.167969 148.769531 302.722656 148.5 301.230469 Z M 122.601562 292.5625 L 147.339844 270.578125 L 154.976562 274.402344 L 146.289062 298.1875 C 145.585938 297.839844 144.792969 297.738281 144.019531 297.957031 C 142.367188 298.425781 141.394531 300.199219 141.660156 302.078125 L 126.15625 305.953125 Z M 116.960938 228.3125 C 117.414062 229.074219 118.121094 229.636719 118.9375 229.914062 L 112.902344 245.652344 C 111.992188 245.476562 111.027344 245.503906 110.074219 245.777344 C 109.128906 246.042969 108.300781 246.519531 107.621094 247.136719 L 94.785156 235.082031 Z M 80.429688 221.597656 L 101.523438 195.1875 C 102.300781 195.558594 103.214844 195.664062 104.113281 195.410156 C 104.171875 195.390625 104.226562 195.371094 104.285156 195.347656 L 118.101562 223.34375 C 116.789062 224.203125 116.125 225.84375 116.578125 227.433594 C 116.621094 227.589844 116.675781 227.734375 116.738281 227.878906 L 94.464844 234.777344 Z M 68.011719 211.617188 L 79.480469 222.394531 L 63.960938 241.828125 C 63.484375 241.402344 62.902344 241.101562 62.273438 240.964844 L 66.742188 212.777344 C 67.222656 212.449219 67.648438 212.058594 68.011719 211.617188 Z M 67.929688 203.707031 C 67.1875 202.839844 66.210938 202.199219 65.132812 201.855469 L 69.605469 193.136719 Z M 68.726562 204.886719 L 99.648438 193.128906 C 99.960938 193.980469 100.554688 194.65625 101.296875 195.074219 L 80.25 221.429688 L 68.699219 210.582031 C 69.414062 209.230469 69.628906 207.617188 69.183594 206.035156 C 69.066406 205.628906 68.914062 205.246094 68.726562 204.886719 Z M 80.453125 172.003906 L 99.996094 189.894531 C 99.621094 190.484375 99.417969 191.179688 99.425781 191.898438 L 68.167969 203.785156 L 69.96875 192.4375 Z M 74.65625 169.492188 C 75.367188 169.292969 75.949219 168.847656 76.367188 168.261719 L 79.515625 171.144531 L 70.585938 188.542969 L 73.585938 169.597656 C 73.941406 169.625 74.300781 169.59375 74.65625 169.492188 Z M 77.007812 165.304688 L 83.386719 163.601562 L 79.632812 170.917969 L 76.503906 168.054688 C 76.96875 167.285156 77.164062 166.308594 77.007812 165.304688 Z M 83.539062 163.308594 L 76.960938 165.0625 C 76.941406 164.964844 76.921875 164.871094 76.894531 164.773438 C 76.777344 164.363281 76.605469 163.984375 76.394531 163.644531 L 90.550781 149.644531 Z M 103.140625 137.199219 L 103.109375 158.082031 L 85.140625 162.878906 L 93.355469 146.875 Z M 103.140625 136.074219 L 103.140625 136.855469 L 93.714844 146.171875 L 99.269531 135.351562 C 100.417969 135.996094 101.773438 136.273438 103.140625 136.074219 Z M 134.742188 114.453125 L 135.558594 146.117188 C 135.445312 146.136719 135.332031 146.164062 135.21875 146.195312 C 134.308594 146.453125 133.578125 147.035156 133.109375 147.777344 L 107.726562 132.828125 C 107.78125 132.726562 107.832031 132.621094 107.878906 132.511719 L 118.609375 121.902344 Z M 134.621094 109.785156 L 134.707031 113.117188 L 121.179688 119.363281 L 132.226562 108.441406 C 132.820312 109.179688 133.683594 109.664062 134.621094 109.785156 Z M 143.746094 108.941406 L 138.515625 107.507812 C 138.613281 107.261719 138.6875 107.003906 138.730469 106.742188 L 150.523438 105.8125 Z M 166.269531 104.566406 L 163.035156 114.222656 L 145.585938 109.445312 L 154.058594 105.53125 Z M 166.636719 103.464844 L 166.351562 104.3125 L 154.703125 105.234375 L 163.785156 101.039062 C 164.464844 102.140625 165.472656 102.980469 166.636719 103.464844 Z M 173.753906 103.726562 L 172.945312 102.507812 C 173.824219 101.769531 174.476562 100.800781 174.835938 99.722656 L 188.238281 102.582031 Z M 207.222656 106.636719 L 188.394531 119 C 187.496094 118.289062 186.285156 118.003906 185.101562 118.339844 C 184.625 118.472656 184.199219 118.695312 183.835938 118.980469 L 173.90625 103.964844 L 189.082031 102.761719 Z M 213.78125 101.703125 C 213.832031 101.878906 213.894531 102.042969 213.96875 102.207031 L 208.667969 105.6875 L 193.378906 102.425781 L 213.648438 100.824219 C 213.65625 101.113281 213.699219 101.410156 213.78125 101.703125 Z M 238.894531 135.65625 L 234.480469 140.039062 C 227.949219 137.367188 218.921875 133.664062 210.054688 130.03125 C 202.863281 127.082031 195.683594 124.136719 189.785156 121.722656 C 189.773438 121.441406 189.730469 121.160156 189.652344 120.878906 C 189.457031 120.195312 189.078125 119.613281 188.589844 119.167969 L 207.5625 106.707031 L 223.445312 110.09375 Z M 254.53125 120.128906 L 239.074219 135.476562 L 223.773438 110.167969 L 253.546875 116.519531 C 253.519531 117.15625 253.589844 117.8125 253.773438 118.457031 C 253.945312 119.066406 254.203125 119.625 254.53125 120.128906 Z M 261.359375 122.691406 C 261.71875 122.589844 262.058594 122.457031 262.382812 122.300781 L 273.550781 142.332031 L 247.8125 143.535156 C 247.109375 141.824219 245.222656 140.875 243.402344 141.390625 C 243.1875 141.453125 242.984375 141.535156 242.792969 141.625 L 239.730469 136.558594 L 255.304688 121.089844 C 256.828125 122.636719 259.125 123.324219 261.359375 122.691406 Z M 275.054688 142.511719 L 279.101562 142.320312 C 279.089844 142.683594 279.136719 143.050781 279.238281 143.417969 C 279.578125 144.609375 280.464844 145.492188 281.546875 145.882812 L 279.960938 151.304688 Z M 282.792969 170.179688 L 274.976562 169.296875 L 279.734375 153.421875 L 286.433594 165.441406 C 284.449219 166.296875 283.101562 168.117188 282.792969 170.179688 Z M 275.125 176.257812 C 276.019531 175.34375 276.414062 173.992188 276.039062 172.675781 C 275.796875 171.8125 275.261719 171.109375 274.574219 170.640625 L 274.621094 170.496094 L 282.738281 171.410156 C 282.761719 171.855469 282.832031 172.304688 282.957031 172.753906 C 283.339844 174.089844 284.128906 175.195312 285.15625 175.972656 L 281.421875 186.039062 Z M 273.785156 177.128906 C 274.222656 176.964844 274.613281 176.726562 274.945312 176.429688 L 281.3125 186.324219 L 277.214844 197.363281 Z M 271.367188 213.125 L 257.921875 195.835938 C 258.96875 194.929688 259.460938 193.46875 259.058594 192.046875 C 258.898438 191.480469 258.609375 190.984375 258.238281 190.574219 L 270.355469 176.675781 C 271.234375 177.304688 272.378906 177.542969 273.5 177.226562 C 273.515625 177.222656 273.53125 177.214844 273.550781 177.207031 L 277.046875 197.824219 Z M 280.183594 224.460938 L 272.253906 214.265625 L 277.457031 200.246094 L 281.496094 224.042969 C 281.308594 224.066406 281.121094 224.101562 280.929688 224.152344 C 280.664062 224.230469 280.414062 224.335938 280.183594 224.460938 Z M 267.683594 244.34375 C 268.183594 243.121094 268.292969 241.730469 267.902344 240.363281 C 267.753906 239.832031 267.535156 239.339844 267.265625 238.886719 L 279.277344 230.25 C 280.144531 231.15625 281.449219 231.582031 282.746094 231.292969 L 285.121094 252.371094 Z M 262.167969 248.179688 C 262.664062 248.164062 263.167969 248.089844 263.667969 247.945312 C 265.089844 247.542969 266.25 246.675781 267.03125 245.550781 L 285.292969 253.882812 L 287.347656 272.101562 L 262.90625 284.679688 Z M 257.28125 287.574219 C 256.660156 286.691406 255.75 286.113281 254.78125 285.980469 L 260.554688 248.007812 C 260.679688 248.039062 260.808594 248.066406 260.9375 248.089844 L 261.6875 285.304688 Z M 258.066406 289.722656 C 258.039062 289.453125 257.992188 289.179688 257.914062 288.90625 C 257.800781 288.496094 257.625 288.121094 257.417969 287.78125 L 261.695312 285.578125 L 261.789062 290.335938 Z M 252.589844 292.851562 C 253.457031 293.609375 254.589844 293.9375 255.675781 293.628906 C 257.195312 293.199219 258.136719 291.671875 258.078125 289.972656 L 261.796875 290.585938 L 262.324219 316.867188 C 261.984375 316.902344 261.640625 316.964844 261.300781 317.0625 C 259.734375 317.507812 258.484375 318.519531 257.710938 319.8125 L 245.246094 314.367188 Z M 227.839844 271.027344 L 231.050781 268.371094 L 251.5625 287.726562 C 251.117188 288.601562 250.988281 289.695312 251.296875 290.785156 C 251.507812 291.535156 251.898438 292.175781 252.394531 292.671875 L 245.023438 314.269531 L 233.105469 309.066406 Z M 204.105469 296.394531 C 204.441406 295.300781 204.476562 294.097656 204.140625 292.914062 C 203.96875 292.308594 203.710938 291.746094 203.382812 291.246094 L 227.617188 271.210938 L 232.84375 308.949219 Z M 190.945312 261.148438 L 223.507812 264.074219 C 223.492188 264.511719 223.542969 264.964844 223.671875 265.414062 C 223.789062 265.832031 223.964844 266.214844 224.179688 266.558594 L 202.332031 290.015625 C 200.894531 288.734375 198.886719 288.148438 196.894531 288.597656 Z M 164.117188 260.703125 C 164.464844 260.136719 164.660156 259.476562 164.660156 258.789062 L 189.664062 261.035156 L 195.722656 288.984375 C 195.226562 289.207031 194.769531 289.488281 194.359375 289.820312 Z M 155.621094 273.351562 L 159.683594 262.234375 C 160.394531 262.5 161.195312 262.554688 161.980469 262.332031 C 162.824219 262.09375 163.511719 261.578125 163.984375 260.914062 L 194.171875 289.980469 C 193.558594 290.523438 193.0625 291.179688 192.707031 291.90625 Z M 158.070312 261.046875 C 158.4375 261.523438 158.917969 261.894531 159.457031 262.140625 L 155.402344 273.238281 L 148.332031 269.703125 Z M 117.351562 254.199219 C 117.90625 252.96875 118.054688 251.554688 117.695312 250.15625 L 138.695312 241.050781 L 158.46875 256.085938 C 157.488281 257 157.039062 258.414062 157.429688 259.789062 C 157.539062 260.175781 157.710938 260.53125 157.925781 260.847656 L 148.09375 269.582031 Z M 116.738281 255.265625 L 147.105469 270.460938 L 122.53125 292.296875 L 113.332031 257.621094 C 113.363281 257.613281 113.394531 257.605469 113.425781 257.597656 C 114.816406 257.203125 115.957031 256.355469 116.738281 255.265625 Z M 115.292969 246.667969 C 114.917969 246.402344 114.511719 246.183594 114.085938 246.003906 L 117.660156 236.683594 Z M 121.128906 229.972656 C 121.789062 229.785156 122.355469 229.425781 122.796875 228.960938 L 137.46875 240.117188 L 117.238281 248.933594 C 116.820312 248.09375 116.222656 247.378906 115.507812 246.828125 L 118.320312 234.960938 L 120.175781 230.109375 C 120.492188 230.105469 120.8125 230.0625 121.128906 229.972656 Z M 106.722656 192.554688 L 133.40625 192.15625 L 121.570312 223.039062 C 120.820312 222.71875 119.964844 222.640625 119.117188 222.882812 C 118.832031 222.960938 118.5625 223.078125 118.3125 223.21875 L 104.519531 195.265625 C 105.6875 194.78125 106.496094 193.746094 106.722656 192.554688 Z M 103.0625 188.179688 C 102.746094 188.183594 102.421875 188.226562 102.101562 188.316406 C 101.277344 188.550781 100.601562 189.046875 100.136719 189.6875 L 80.570312 171.777344 L 84.988281 163.175781 L 103.109375 158.335938 Z M 121.289062 153.484375 L 127.082031 160.507812 L 105.46875 189.035156 C 104.867188 188.53125 104.109375 188.230469 103.308594 188.1875 L 103.355469 158.273438 Z M 132.574219 150.21875 L 122.421875 152.925781 L 106.871094 134.074219 C 107.152344 133.757812 107.398438 133.414062 107.609375 133.046875 L 132.984375 147.988281 C 132.625 148.65625 132.46875 149.429688 132.574219 150.21875 Z M 138.039062 152.945312 L 145.75 165.859375 L 143.585938 172.320312 C 142.335938 171.785156 140.898438 171.65625 139.484375 172.054688 C 139.144531 172.152344 138.820312 172.277344 138.507812 172.425781 L 128.003906 159.695312 L 133.589844 152.320312 C 134.503906 153.25 135.886719 153.667969 137.230469 153.289062 C 137.519531 153.203125 137.789062 153.085938 138.039062 152.945312 Z M 172.359375 162.832031 L 150.6875 154.976562 L 156.472656 137.703125 L 182.574219 122.925781 C 182.902344 124.046875 183.71875 124.890625 184.722656 125.296875 Z M 189.09375 129.164062 L 202.546875 164.253906 L 186.03125 167.789062 L 172.589844 162.917969 L 184.953125 125.386719 C 185.5 125.566406 186.089844 125.617188 186.683594 125.523438 Z M 215.824219 158.566406 C 214.300781 157.03125 212.011719 156.347656 209.785156 156.980469 C 209.550781 157.046875 209.324219 157.125 209.105469 157.21875 L 187.886719 125.109375 C 189.03125 124.480469 189.753906 123.285156 189.789062 121.988281 C 195.671875 124.398438 202.8125 127.324219 209.960938 130.257812 C 218.464844 133.746094 226.976562 137.234375 233.359375 139.847656 C 233.675781 139.976562 233.984375 140.101562 234.289062 140.226562 Z M 241.074219 143 C 241.128906 143.023438 241.179688 143.046875 241.234375 143.066406 C 240.738281 143.902344 240.574219 144.933594 240.859375 145.941406 C 240.914062 146.128906 240.984375 146.304688 241.0625 146.476562 C 240.339844 147.125 239.445312 147.929688 238.324219 148.945312 C 235.386719 151.613281 231.308594 155.339844 226.207031 160.03125 C 224.980469 161.160156 223.75 162.289062 222.542969 163.398438 L 217.605469 162.84375 C 217.597656 162.304688 217.527344 161.757812 217.371094 161.210938 C 217.199219 160.597656 216.933594 160.03125 216.601562 159.523438 L 235.527344 140.734375 C 237.761719 141.648438 239.652344 142.421875 241.074219 143 Z M 241.367188 142.855469 C 239.941406 142.273438 238.011719 141.484375 235.714844 140.546875 L 239.550781 136.738281 L 242.574219 141.742188 C 242.085938 142.023438 241.675781 142.402344 241.367188 142.855469 Z M 249.222656 166.398438 L 222.867188 163.433594 C 230.074219 156.800781 237.285156 150.1875 241.175781 146.703125 C 241.917969 148.066406 243.453125 148.832031 245.011719 148.570312 Z M 267.996094 168.511719 L 249.484375 166.429688 L 245.253906 148.519531 C 245.304688 148.507812 245.359375 148.5 245.410156 148.484375 C 246.039062 148.304688 246.582031 147.972656 247.011719 147.542969 Z M 269.78125 169.949219 L 271.46875 170.140625 C 271.09375 170.25 270.753906 170.410156 270.449219 170.617188 Z M 256.117188 240.246094 L 238.914062 235.582031 C 241.285156 229.765625 243.65625 223.945312 246.027344 218.128906 L 258.078125 237.304688 C 257.148438 238.074219 256.46875 239.101562 256.117188 240.246094 Z M 257.648438 246.378906 C 258.390625 247.117188 259.3125 247.660156 260.3125 247.945312 L 254.539062 285.953125 C 254.203125 285.9375 253.867188 285.96875 253.53125 286.0625 C 252.742188 286.289062 252.105469 286.8125 251.683594 287.503906 L 231.242188 268.214844 Z M 229.847656 266.898438 C 230.4375 265.984375 230.636719 264.757812 230.292969 263.539062 C 230.171875 263.113281 229.988281 262.722656 229.769531 262.371094 L 256.363281 244.484375 C 256.503906 244.820312 256.675781 245.132812 256.871094 245.429688 L 230.339844 267.363281 Z M 227.46875 268.359375 C 227.664062 268.34375 227.859375 268.316406 228.054688 268.257812 C 228.734375 268.066406 229.296875 267.652344 229.707031 267.105469 L 230.148438 267.519531 L 227.640625 269.597656 Z M 208.316406 228.5625 L 238.210938 236.664062 C 234.902344 244.769531 231.601562 252.875 228.296875 260.984375 C 227.5625 260.589844 226.722656 260.464844 225.910156 260.695312 C 225.730469 260.746094 225.558594 260.816406 225.394531 260.898438 Z M 190.882812 260.863281 L 203.410156 262.023438 L 190.890625 260.898438 Z M 161.363281 231.21875 L 175.828125 224.945312 C 177.101562 227.308594 179.816406 228.609375 182.511719 228.03125 L 184.820312 238.675781 L 163.359375 255.972656 C 162.800781 255.5 162.105469 255.203125 161.371094 255.121094 Z M 161.121094 231.324219 L 161.125 255.101562 C 160.746094 255.089844 160.355469 255.128906 159.96875 255.238281 C 159.476562 255.378906 159.035156 255.617188 158.65625 255.917969 L 138.953125 240.9375 Z M 123.667969 225.421875 C 123.5625 225.042969 123.398438 224.695312 123.191406 224.382812 L 156.71875 195.476562 L 161.113281 200.5625 L 161.117188 229.8125 L 137.726562 240.003906 L 122.960938 228.777344 C 123.707031 227.875 124.011719 226.632812 123.667969 225.421875 Z M 134.730469 192.136719 L 153.597656 191.859375 L 156.558594 195.289062 L 123.042969 224.183594 C 122.917969 224.019531 122.777344 223.867188 122.625 223.726562 Z M 106.535156 190.511719 L 135.238281 179.59375 C 135.246094 179.609375 135.246094 179.625 135.253906 179.644531 C 135.585938 180.8125 136.238281 181.808594 137.085938 182.5625 L 133.503906 191.910156 L 106.765625 192.308594 C 106.824219 191.835938 106.789062 191.34375 106.652344 190.859375 C 106.617188 190.738281 106.578125 190.621094 106.535156 190.511719 Z M 153.386719 191.617188 L 134.824219 191.890625 L 138.117188 183.300781 C 139.5 184.089844 141.183594 184.34375 142.835938 183.875 C 143.84375 183.589844 144.71875 183.070312 145.425781 182.390625 Z M 147.273438 177.339844 L 151.996094 176.328125 L 159.363281 188.664062 C 158.476562 189.351562 157.945312 190.417969 157.9375 191.546875 L 154.992188 191.59375 L 146.226562 181.441406 C 147.03125 180.265625 147.425781 178.816406 147.273438 177.339844 Z M 146.578125 167.25 L 151.332031 175.214844 L 147.023438 176.136719 C 146.601562 174.789062 145.757812 173.683594 144.675781 172.929688 Z M 149.453125 154.789062 L 145.851562 165.550781 L 138.25 152.820312 C 138.855469 152.421875 139.320312 151.863281 139.601562 151.21875 Z M 169.5625 171.3125 L 151.585938 175.160156 L 146.683594 166.941406 L 150.609375 155.210938 L 172.28125 163.066406 Z M 169.84375 171.25 L 172.511719 163.148438 L 185.578125 167.882812 Z M 205.109375 174.964844 L 203.632812 177.816406 L 165.042969 190.207031 C 164.824219 189.65625 164.480469 189.183594 164.054688 188.8125 L 169.398438 172.605469 L 187.753906 168.675781 Z M 205.996094 173.25 L 205.222656 174.746094 L 188.207031 168.578125 L 202.992188 165.414062 Z M 205.363281 163.648438 L 202.789062 164.199219 L 189.71875 130.113281 L 208.019531 157.800781 C 206.132812 159.078125 205.074219 161.335938 205.363281 163.648438 Z M 211.210938 173.859375 C 210.296875 172.953125 208.9375 172.550781 207.609375 172.925781 C 207.585938 172.933594 207.5625 172.945312 207.535156 172.953125 L 209.703125 168.773438 C 210.785156 169.097656 211.96875 169.128906 213.136719 168.800781 C 213.671875 168.648438 214.167969 168.429688 214.621094 168.15625 L 215.636719 169.769531 C 213.898438 171.375 212.382812 172.773438 211.210938 173.859375 Z M 222.917969 181.359375 C 219.234375 180.085938 215.605469 178.796875 212.152344 177.488281 C 212.339844 176.851562 212.355469 176.152344 212.160156 175.46875 C 212.003906 174.917969 211.730469 174.4375 211.378906 174.035156 C 212.757812 172.761719 214.234375 171.394531 215.765625 169.980469 Z M 216.554688 168.921875 L 215.609375 167.421875 C 216.578125 166.53125 217.238281 165.355469 217.488281 164.066406 L 221.347656 164.5 C 219.664062 166.054688 218.042969 167.546875 216.554688 168.921875 Z M 252.171875 191.496094 C 245.890625 189.125 239.03125 186.8125 232.363281 184.566406 C 229.84375 183.71875 227.300781 182.859375 224.769531 181.996094 L 216.683594 169.132812 C 218.308594 167.636719 219.984375 166.089844 221.671875 164.535156 L 249.523438 167.671875 L 254.671875 189.46875 C 254.617188 189.480469 254.5625 189.492188 254.507812 189.503906 C 253.433594 189.808594 252.613281 190.558594 252.171875 191.496094 Z M 238.28125 203.492188 L 252.542969 195.226562 C 253.035156 195.902344 253.742188 196.382812 254.535156 196.601562 C 251.835938 203.226562 249.136719 209.847656 246.4375 216.472656 Z M 202.578125 224.683594 C 203.472656 225.390625 204.683594 225.675781 205.867188 225.339844 C 206.003906 225.300781 206.136719 225.253906 206.265625 225.203125 L 207.210938 226.988281 L 201.601562 225.46875 Z M 187.363281 221.609375 C 187.335938 221.191406 187.265625 220.769531 187.144531 220.351562 C 186.738281 218.917969 185.855469 217.75 184.71875 216.96875 L 188.152344 210.34375 L 201.78125 219.777344 C 201.21875 220.640625 201.011719 221.730469 201.316406 222.800781 C 201.511719 223.488281 201.890625 224.074219 202.386719 224.523438 L 201.308594 225.390625 Z M 183.6875 227.65625 C 185.679688 226.792969 187.03125 224.949219 187.320312 222.871094 L 200.128906 226.339844 L 185.890625 237.816406 Z M 160.617188 188.03125 C 160.230469 188.140625 159.878906 188.308594 159.5625 188.519531 L 152.25 176.273438 L 169.117188 172.664062 L 163.851562 188.648438 C 162.960938 187.96875 161.777344 187.703125 160.617188 188.03125 Z M 206.148438 172.960938 L 203.234375 165.363281 L 205.640625 164.847656 C 206.15625 166.382812 207.226562 167.585938 208.5625 168.300781 Z M 208.335938 180.144531 L 205.453125 218.160156 C 204.9375 218.078125 204.394531 218.097656 203.855469 218.25 C 203.050781 218.476562 202.390625 218.957031 201.921875 219.578125 L 188.265625 210.125 L 205.117188 177.621094 C 205.589844 179.070312 206.886719 180.035156 208.335938 180.144531 Z M 237.085938 203.902344 L 208.332031 220.566406 C 207.902344 219.347656 206.886719 218.484375 205.695312 218.207031 L 208.582031 180.15625 C 208.925781 180.160156 209.273438 180.117188 209.621094 180.015625 C 210.808594 179.679688 211.6875 178.800781 212.078125 177.722656 C 215.617188 179.066406 219.347656 180.386719 223.128906 181.691406 Z M 252.402344 195.023438 L 238.152344 203.285156 L 224.976562 182.324219 C 227.414062 183.160156 229.863281 183.984375 232.285156 184.800781 C 238.949219 187.046875 245.800781 189.355469 252.078125 191.722656 C 251.796875 192.441406 251.738281 193.253906 251.964844 194.054688 C 252.066406 194.40625 252.214844 194.730469 252.402344 195.023438 Z M 165.121094 190.4375 L 203.472656 178.125 L 187.25 209.417969 L 164.601562 193.738281 C 165.242188 192.859375 165.488281 191.703125 165.167969 190.570312 C 165.152344 190.527344 165.136719 190.484375 165.121094 190.4375 Z M 161.359375 198.96875 L 161.355469 195.25 C 161.773438 195.28125 162.203125 195.242188 162.625 195.121094 C 163.367188 194.910156 163.992188 194.488281 164.449219 193.9375 L 187.136719 209.640625 L 183.644531 216.375 C 182.394531 215.84375 180.964844 215.71875 179.558594 216.117188 C 178.675781 216.367188 177.890625 216.800781 177.238281 217.363281 Z M 176.386719 218.257812 C 175.242188 219.730469 174.785156 221.699219 175.308594 223.628906 L 161.363281 229.707031 L 161.359375 200.847656 Z M 158.675781 193.789062 C 159.265625 194.570312 160.144531 195.089844 161.109375 195.226562 L 161.109375 198.683594 L 157.648438 194.671875 Z M 158.53125 193.585938 L 157.488281 194.488281 L 155.199219 191.835938 L 157.941406 191.792969 C 157.957031 192.054688 158 192.320312 158.074219 192.582031 C 158.179688 192.949219 158.335938 193.285156 158.53125 193.585938 Z M 207.53125 227.074219 L 206.488281 225.097656 C 208.050781 224.332031 208.894531 222.539062 208.410156 220.804688 L 237.21875 204.109375 L 245.867188 217.871094 C 243.46875 223.753906 241.070312 229.636719 238.675781 235.515625 Z M 256.265625 244.253906 L 229.632812 262.167969 C 229.320312 261.734375 228.9375 261.375 228.511719 261.109375 C 231.824219 252.980469 235.136719 244.855469 238.445312 236.726562 L 255.878906 241.453125 C 255.808594 242.191406 255.867188 242.953125 256.085938 243.710938 C 256.136719 243.898438 256.199219 244.078125 256.265625 244.253906 Z M 139.152344 147.507812 L 154.871094 138.605469 L 149.53125 154.558594 L 139.6875 150.988281 C 139.941406 150.289062 139.988281 149.507812 139.769531 148.734375 C 139.640625 148.277344 139.425781 147.863281 139.152344 147.507812 Z M 137.449219 173.074219 C 135.828125 174.304688 134.898438 176.289062 135.03125 178.359375 L 105.882812 189.441406 C 105.808594 189.359375 105.730469 189.28125 105.652344 189.203125 L 127.242188 160.703125 Z M 133.425781 152.132812 L 127.84375 159.5 L 122.59375 153.136719 L 132.613281 150.460938 C 132.632812 150.554688 132.652344 150.652344 132.679688 150.746094 C 132.828125 151.273438 133.089844 151.742188 133.425781 152.132812 Z M 189.601562 260.742188 L 189.609375 260.785156 L 164.652344 258.542969 C 164.652344 258.503906 164.644531 258.464844 164.640625 258.425781 Z M 164.609375 258.175781 C 164.585938 258.042969 164.558594 257.914062 164.523438 257.78125 C 164.339844 257.132812 163.992188 256.578125 163.539062 256.140625 L 184.878906 238.945312 L 189.546875 260.488281 Z M 227.222656 268.371094 L 227.417969 269.777344 L 202.613281 290.289062 C 202.582031 290.253906 202.546875 290.21875 202.507812 290.183594 L 224.320312 266.769531 C 225.03125 267.765625 226.109375 268.371094 227.222656 268.371094 Z M 223.542969 263.644531 L 190.828125 260.609375 L 185.945312 238.082031 L 200.421875 226.421875 L 207.992188 228.472656 L 225.179688 261.015625 C 224.28125 261.550781 223.691406 262.523438 223.542969 263.644531 Z M 262.890625 235.960938 C 262.054688 235.835938 261.183594 235.882812 260.316406 236.128906 C 259.886719 236.25 259.480469 236.414062 259.101562 236.617188 L 246.597656 216.726562 C 249.324219 210.039062 252.050781 203.351562 254.777344 196.660156 C 255.335938 196.773438 255.929688 196.761719 256.515625 196.597656 C 256.96875 196.46875 257.375 196.257812 257.730469 195.992188 L 271.265625 213.398438 Z M 272.085938 233.90625 L 266.535156 237.898438 C 266.488281 237.847656 266.4375 237.792969 266.386719 237.742188 Z M 278.585938 229.234375 L 278.476562 229.3125 L 266.207031 237.566406 C 265.597656 236.992188 264.871094 236.550781 264.085938 236.265625 L 272.152344 214.539062 L 279.964844 224.585938 C 278.621094 225.4375 277.933594 227.097656 278.390625 228.703125 C 278.441406 228.890625 278.511719 229.0625 278.585938 229.234375 Z M 270.160156 176.527344 L 258.066406 190.398438 C 257.246094 189.609375 256.085938 189.222656 254.910156 189.414062 L 249.78125 167.699219 L 269.390625 169.90625 L 270.246094 170.761719 C 269.089844 171.65625 268.527344 173.191406 268.949219 174.683594 C 269.164062 175.4375 269.597656 176.066406 270.160156 176.527344 Z M 274.351562 170.464844 L 274.34375 170.492188 C 274.324219 170.480469 274.304688 170.46875 274.285156 170.457031 Z M 247.898438 143.773438 L 273.683594 142.574219 L 279.472656 152.960938 L 274.703125 169.269531 L 268.386719 168.558594 L 247.179688 147.363281 C 247.972656 146.453125 248.304688 145.179688 247.953125 143.933594 C 247.9375 143.878906 247.914062 143.828125 247.898438 143.773438 Z M 182.976562 119.941406 C 182.484375 120.734375 182.296875 121.707031 182.511719 122.679688 L 156.585938 137.351562 L 164.144531 114.78125 Z M 167.683594 104.207031 L 167.8125 103.824219 C 168.734375 104.007812 169.710938 103.980469 170.675781 103.707031 C 171.121094 103.582031 171.539062 103.410156 171.929688 103.199219 L 172.355469 103.839844 Z M 172.507812 104.074219 L 182.796875 119.636719 L 164.222656 114.550781 L 167.597656 104.460938 Z M 134.949219 113.003906 L 134.867188 109.808594 C 135.273438 109.832031 135.691406 109.796875 136.105469 109.679688 C 137.160156 109.378906 137.972656 108.648438 138.414062 107.734375 L 143.402344 109.101562 Z M 145.242188 109.601562 L 162.957031 114.457031 L 154.988281 138.257812 L 138.992188 147.3125 C 138.210938 146.421875 137.023438 145.941406 135.804688 146.082031 L 134.984375 114.339844 Z M 103.386719 136.609375 L 103.386719 136.035156 C 103.578125 136 103.765625 135.957031 103.953125 135.90625 C 104.027344 135.882812 104.097656 135.863281 104.167969 135.839844 Z M 104.734375 135.625 C 105.175781 135.429688 105.589844 135.191406 105.964844 134.90625 L 121.117188 153.277344 L 103.355469 158.015625 L 103.386719 136.957031 Z M 146.507812 298.304688 L 155.199219 274.511719 L 192.28125 293.066406 C 192.148438 293.59375 192.082031 294.136719 192.089844 294.6875 L 148.449219 300.992188 C 148.433594 300.925781 148.421875 300.863281 148.402344 300.800781 C 148.085938 299.683594 147.378906 298.804688 146.507812 298.304688 Z M 236.25 333.558594 L 236.382812 334.53125 C 236.300781 334.550781 236.214844 334.566406 236.125 334.589844 C 235.601562 334.742188 235.136719 335 234.742188 335.332031 L 233.953125 334.421875 Z M 233.09375 333.433594 L 202.855469 298.636719 C 203.152344 298.292969 203.410156 297.921875 203.625 297.527344 L 233.039062 310.375 L 236.078125 332.3125 Z M 280.484375 139.535156 C 279.707031 140.160156 279.210938 141.078125 279.121094 142.074219 L 274.921875 142.269531 L 263.429688 121.652344 C 263.511719 121.589844 263.585938 121.523438 263.664062 121.457031 Z M 265.445312 118.910156 L 281.464844 138.972656 C 281.183594 139.082031 280.921875 139.222656 280.683594 139.386719 L 263.847656 121.296875 C 264.5625 120.636719 265.105469 119.816406 265.445312 118.910156 Z M 218.332031 104.246094 C 218.78125 104.117188 219.1875 103.90625 219.539062 103.640625 L 222.570312 108.652344 L 209.003906 105.757812 L 214.074219 102.429688 C 214.871094 103.929688 216.628906 104.726562 218.332031 104.246094 Z M 107.628906 126.976562 L 117.953125 122.207031 L 108.101562 131.949219 C 108.484375 130.816406 108.539062 129.558594 108.1875 128.320312 C 108.050781 127.839844 107.863281 127.390625 107.628906 126.976562 Z M 64.144531 241.996094 L 79.660156 222.5625 L 93.113281 235.199219 L 65.121094 243.867188 C 65.101562 243.765625 65.078125 243.664062 65.050781 243.5625 C 64.875 242.953125 64.558594 242.421875 64.144531 241.996094 Z M 165.777344 344.40625 L 155.589844 322.757812 L 192.890625 297.625 C 193.582031 298.84375 194.664062 299.769531 195.925781 300.28125 L 193.6875 343.90625 C 193.574219 343.929688 193.460938 343.957031 193.347656 343.988281 L 170.21875 347.164062 C 170.207031 347.101562 170.195312 347.042969 170.179688 346.980469 C 169.636719 345.074219 167.6875 343.949219 165.777344 344.40625 Z M 283.175781 293.859375 L 263.023438 290.539062 L 262.910156 284.953125 L 287.375 272.359375 L 288.90625 285.910156 Z M 288.929688 291.097656 C 287.515625 291.5 286.601562 292.851562 286.527344 294.410156 L 284.53125 294.082031 L 289.109375 287.726562 L 289.476562 291 C 289.292969 291.015625 289.113281 291.046875 288.929688 291.097656 Z M 302.144531 260.203125 L 285.382812 252.488281 L 282.984375 231.230469 C 283.230469 231.15625 283.464844 231.058594 283.6875 230.941406 L 303.503906 258.316406 C 302.933594 258.855469 302.472656 259.5 302.144531 260.203125 Z M 307.226562 155.660156 C 306.671875 153.699219 304.632812 152.5625 302.675781 153.117188 C 302.320312 153.21875 301.988281 153.375 301.691406 153.5625 L 265.691406 118.054688 C 265.894531 117.109375 265.875 116.101562 265.59375 115.105469 C 264.667969 111.84375 261.273438 109.945312 258.007812 110.875 C 256.296875 111.359375 254.964844 112.527344 254.214844 114 L 220.890625 101.632812 C 221.050781 101.019531 221.058594 100.351562 220.871094 99.691406 C 220.316406 97.734375 218.28125 96.597656 216.320312 97.152344 C 215.042969 97.515625 214.117188 98.507812 213.78125 99.695312 L 175.140625 97.617188 C 175.128906 97.121094 175.050781 96.621094 174.910156 96.121094 C 173.984375 92.859375 170.589844 90.960938 167.328125 91.886719 C 164.335938 92.738281 162.496094 95.660156 162.917969 98.652344 L 138.230469 104.195312 C 137.386719 102.828125 135.714844 102.128906 134.09375 102.585938 C 132.152344 103.136719 131.019531 105.140625 131.539062 107.085938 L 106.109375 125.199219 C 104.613281 124.003906 102.585938 123.523438 100.601562 124.085938 C 97.339844 125.011719 95.441406 128.40625 96.367188 131.667969 C 96.566406 132.371094 96.882812 133.003906 97.28125 133.566406 L 74.800781 162.167969 C 74.089844 161.816406 73.289062 161.710938 72.511719 161.929688 C 70.683594 162.449219 69.683594 164.5625 70.273438 166.648438 C 70.539062 167.574219 71.070312 168.339844 71.742188 168.859375 L 63.296875 201.566406 C 62.734375 201.566406 62.164062 201.640625 61.597656 201.800781 C 58.332031 202.726562 56.4375 206.121094 57.363281 209.386719 C 57.972656 211.546875 59.667969 213.105469 61.691406 213.644531 L 61.003906 240.921875 C 60.835938 240.945312 60.667969 240.976562 60.5 241.023438 C 58.539062 241.578125 57.402344 243.617188 57.957031 245.574219 C 58.492188 247.453125 60.382812 248.570312 62.265625 248.171875 L 79.207031 283.953125 C 76.410156 285.152344 74.871094 288.265625 75.722656 291.269531 C 76.648438 294.53125 80.046875 296.429688 83.308594 295.503906 C 84.246094 295.238281 85.070312 294.769531 85.746094 294.15625 L 92.6875 300.378906 L 97.625 309.089844 C 96.539062 309.984375 96.046875 311.605469 96.503906 313.214844 C 97.09375 315.304688 99.058594 316.578125 100.882812 316.058594 C 102.539062 315.589844 103.511719 313.8125 103.242188 311.929688 L 105.0625 311.476562 L 129.273438 333.183594 C 127.84375 334.703125 127.226562 336.914062 127.839844 339.066406 C 128.761719 342.328125 132.160156 344.226562 135.421875 343.300781 C 137.234375 342.789062 138.625 341.511719 139.34375 339.921875 L 163.078125 347.03125 C 162.910156 347.652344 162.898438 348.328125 163.085938 348.992188 C 163.640625 350.949219 165.679688 352.089844 167.636719 351.535156 C 169.074219 351.125 170.0625 349.921875 170.273438 348.535156 L 188.875 350.054688 C 188.886719 350.558594 188.960938 351.070312 189.105469 351.578125 C 190.03125 354.839844 193.425781 356.738281 196.691406 355.8125 C 199.925781 354.894531 201.8125 351.546875 200.945312 348.3125 L 233.679688 339.414062 C 234.339844 341.203125 236.273438 342.210938 238.136719 341.683594 C 240.09375 341.128906 241.234375 339.089844 240.679688 337.132812 C 240.617188 336.910156 240.535156 336.699219 240.4375 336.503906 L 257.921875 326.460938 C 259.375 328.566406 262.054688 329.621094 264.652344 328.882812 C 267.914062 327.957031 269.808594 324.5625 268.882812 321.296875 C 268.632812 320.410156 268.199219 319.625 267.632812 318.96875 L 288.257812 298.101562 C 289.082031 298.699219 290.09375 298.941406 291.070312 298.664062 C 292.898438 298.144531 293.902344 296.03125 293.308594 293.941406 C 293.109375 293.234375 292.75 292.625 292.296875 292.144531 L 304.679688 268.125 C 306.058594 268.910156 307.746094 269.164062 309.390625 268.695312 C 312.65625 267.769531 314.550781 264.375 313.628906 261.109375 C 313.109375 259.285156 311.820312 257.890625 310.210938 257.175781 L 312.820312 233.1875 C 313.65625 232.277344 314.019531 230.96875 313.65625 229.6875 C 313.570312 229.382812 313.445312 229.097656 313.292969 228.835938 L 315.566406 207.925781 C 317.289062 207.230469 318.246094 205.332031 317.726562 203.507812 C 317.316406 202.050781 316.085938 201.054688 314.675781 200.863281 L 305.214844 160.011719 C 306.84375 159.265625 307.730469 157.433594 307.226562 155.660156 " fill-opacity="1" fill-rule="nonzero"/></g><g clip-path="url(#a0b8ccffcf)"><g clip-path="url(#5bc82847ad)"><g clip-path="url(#ee5ccee026)"><path fill="#ffffff" d="M 139.667969 69.328125 L 132.964844 69.328125 C 129.261719 69.328125 126.261719 66.328125 126.261719 62.625 C 126.261719 62.042969 126.359375 61.488281 126.5 60.949219 L 129.613281 60.949219 C 129.761719 60.949219 129.898438 60.996094 130.035156 61.035156 C 129.773438 61.507812 129.613281 62.046875 129.613281 62.625 C 129.613281 64.472656 131.117188 65.976562 132.964844 65.976562 L 139.667969 65.976562 C 141.515625 65.976562 143.019531 64.472656 143.019531 62.625 C 143.019531 60.777344 141.515625 59.273438 139.667969 59.273438 L 137.28125 59.273438 C 136.691406 57.929688 135.75 56.785156 134.589844 55.921875 L 139.667969 55.921875 C 143.371094 55.921875 146.371094 58.921875 146.371094 62.625 C 146.371094 66.328125 143.371094 69.328125 139.667969 69.328125 Z M 125.296875 65.976562 L 122.910156 65.976562 C 121.0625 65.976562 119.558594 64.472656 119.558594 62.625 C 119.558594 60.777344 121.0625 59.273438 122.910156 59.273438 L 129.613281 59.273438 C 131.460938 59.273438 132.964844 60.777344 132.964844 62.625 C 132.964844 63.203125 132.804688 63.738281 132.546875 64.214844 C 132.683594 64.25 132.816406 64.300781 132.964844 64.300781 L 136.078125 64.300781 C 136.21875 63.761719 136.316406 63.207031 136.316406 62.625 C 136.316406 58.921875 133.316406 55.921875 129.613281 55.921875 L 122.910156 55.921875 C 119.207031 55.921875 116.207031 58.921875 116.207031 62.625 C 116.207031 66.328125 119.207031 69.328125 122.910156 69.328125 L 127.988281 69.328125 C 126.824219 68.460938 125.886719 67.320312 125.296875 65.976562 Z M 125.296875 65.976562 " fill-opacity="1" fill-rule="nonzero"/></g></g></g><g fill="#ffffff" fill-opacity="1"><g transform="translate(150.084283, 68.297458)"><g><path d="M 7.84375 0.15625 C 6.96875 0.15625 6.15625 0.0664062 5.40625 -0.109375 C 4.664062 -0.285156 3.992188 -0.546875 3.390625 -0.890625 C 2.796875 -1.242188 2.289062 -1.675781 1.875 -2.1875 C 1.457031 -2.695312 1.132812 -3.285156 0.90625 -3.953125 C 0.6875 -4.617188 0.578125 -5.351562 0.578125 -6.15625 C 0.578125 -6.976562 0.6875 -7.71875 0.90625 -8.375 C 1.132812 -9.039062 1.457031 -9.628906 1.875 -10.140625 C 2.289062 -10.648438 2.796875 -11.078125 3.390625 -11.421875 C 3.992188 -11.773438 4.664062 -12.039062 5.40625 -12.21875 C 6.15625 -12.394531 6.96875 -12.484375 7.84375 -12.484375 C 8.78125 -12.484375 9.644531 -12.378906 10.4375 -12.171875 C 11.226562 -11.972656 11.929688 -11.675781 12.546875 -11.28125 C 13.160156 -10.882812 13.671875 -10.394531 14.078125 -9.8125 C 14.492188 -9.238281 14.785156 -8.570312 14.953125 -7.8125 L 11.46875 -7.8125 C 11.289062 -8.257812 11.03125 -8.625 10.6875 -8.90625 C 10.351562 -9.195312 9.945312 -9.410156 9.46875 -9.546875 C 8.988281 -9.691406 8.445312 -9.765625 7.84375 -9.765625 C 7.25 -9.765625 6.710938 -9.691406 6.234375 -9.546875 C 5.753906 -9.410156 5.34375 -9.195312 5 -8.90625 C 4.664062 -8.613281 4.40625 -8.238281 4.21875 -7.78125 C 4.039062 -7.332031 3.953125 -6.789062 3.953125 -6.15625 C 3.953125 -5.53125 4.039062 -4.988281 4.21875 -4.53125 C 4.40625 -4.070312 4.664062 -3.695312 5 -3.40625 C 5.34375 -3.113281 5.753906 -2.894531 6.234375 -2.75 C 6.710938 -2.613281 7.25 -2.546875 7.84375 -2.546875 C 8.53125 -2.546875 9.140625 -2.640625 9.671875 -2.828125 C 10.210938 -3.015625 10.648438 -3.300781 10.984375 -3.6875 C 11.328125 -4.082031 11.554688 -4.582031 11.671875 -5.1875 L 15.078125 -5.1875 C 14.992188 -4.5 14.816406 -3.875 14.546875 -3.3125 C 14.273438 -2.75 13.925781 -2.25 13.5 -1.8125 C 13.070312 -1.382812 12.570312 -1.019531 12 -0.71875 C 11.425781 -0.425781 10.789062 -0.207031 10.09375 -0.0625 C 9.394531 0.0820312 8.644531 0.15625 7.84375 0.15625 Z M 7.84375 0.15625 "/></g></g></g><g fill="#ffffff" fill-opacity="1"><g transform="translate(165.615037, 68.297458)"><g><path d="M 7.84375 0.15625 C 6.96875 0.15625 6.15625 0.0664062 5.40625 -0.109375 C 4.664062 -0.285156 3.992188 -0.546875 3.390625 -0.890625 C 2.796875 -1.242188 2.289062 -1.675781 1.875 -2.1875 C 1.457031 -2.695312 1.132812 -3.285156 0.90625 -3.953125 C 0.6875 -4.617188 0.578125 -5.351562 0.578125 -6.15625 C 0.578125 -6.976562 0.6875 -7.71875 0.90625 -8.375 C 1.132812 -9.039062 1.457031 -9.628906 1.875 -10.140625 C 2.289062 -10.648438 2.796875 -11.078125 3.390625 -11.421875 C 3.992188 -11.773438 4.664062 -12.039062 5.40625 -12.21875 C 6.15625 -12.394531 6.96875 -12.484375 7.84375 -12.484375 C 8.71875 -12.484375 9.53125 -12.394531 10.28125 -12.21875 C 11.03125 -12.039062 11.703125 -11.773438 12.296875 -11.421875 C 12.898438 -11.078125 13.410156 -10.648438 13.828125 -10.140625 C 14.253906 -9.628906 14.578125 -9.039062 14.796875 -8.375 C 15.023438 -7.71875 15.140625 -6.976562 15.140625 -6.15625 C 15.140625 -5.351562 15.023438 -4.617188 14.796875 -3.953125 C 14.578125 -3.285156 14.253906 -2.695312 13.828125 -2.1875 C 13.410156 -1.675781 12.898438 -1.242188 12.296875 -0.890625 C 11.703125 -0.546875 11.03125 -0.285156 10.28125 -0.109375 C 9.53125 0.0664062 8.71875 0.15625 7.84375 0.15625 Z M 7.84375 -2.546875 C 8.445312 -2.546875 8.988281 -2.613281 9.46875 -2.75 C 9.945312 -2.894531 10.359375 -3.113281 10.703125 -3.40625 C 11.046875 -3.695312 11.304688 -4.070312 11.484375 -4.53125 C 11.671875 -4.988281 11.765625 -5.53125 11.765625 -6.15625 C 11.765625 -6.789062 11.671875 -7.332031 11.484375 -7.78125 C 11.304688 -8.238281 11.046875 -8.613281 10.703125 -8.90625 C 10.359375 -9.195312 9.945312 -9.410156 9.46875 -9.546875 C 8.988281 -9.691406 8.445312 -9.765625 7.84375 -9.765625 C 7.25 -9.765625 6.710938 -9.691406 6.234375 -9.546875 C 5.753906 -9.410156 5.34375 -9.195312 5 -8.90625 C 4.664062 -8.613281 4.40625 -8.238281 4.21875 -7.78125 C 4.039062 -7.332031 3.953125 -6.789062 3.953125 -6.15625 C 3.953125 -5.53125 4.039062 -4.988281 4.21875 -4.53125 C 4.40625 -4.070312 4.664062 -3.695312 5 -3.40625 C 5.34375 -3.113281 5.753906 -2.894531 6.234375 -2.75 C 6.710938 -2.613281 7.25 -2.546875 7.84375 -2.546875 Z M 7.84375 -2.546875 "/></g></g></g><g fill="#ffffff" fill-opacity="1"><g transform="translate(181.307907, 68.297458)"><g><path d="M 10.734375 -12.3125 L 14.203125 -12.3125 L 14.203125 0 L 9.53125 0 L 4.875 -8.1875 L 4.875 0 L 1.40625 0 L 1.40625 -12.3125 L 6.109375 -12.3125 L 10.734375 -4.203125 Z M 10.734375 -12.3125 "/></g></g></g><g fill="#ffffff" fill-opacity="1"><g transform="translate(196.911613, 68.297458)"><g><path d="M 10.734375 -12.3125 L 14.203125 -12.3125 L 14.203125 0 L 9.53125 0 L 4.875 -8.1875 L 4.875 0 L 1.40625 0 L 1.40625 -12.3125 L 6.109375 -12.3125 L 10.734375 -4.203125 Z M 10.734375 -12.3125 "/></g></g></g><g fill="#ffffff" fill-opacity="1"><g transform="translate(212.51532, 68.297458)"><g><path d="M 4.921875 -2.796875 L 12.40625 -2.796875 L 12.40625 0 L 1.40625 0 L 1.40625 -12.3125 L 12 -12.3125 L 12 -9.53125 L 4.921875 -9.53125 L 4.921875 -7.546875 L 9.125 -7.546875 L 9.125 -5.109375 L 4.921875 -5.109375 Z M 4.921875 -2.796875 "/></g></g></g><g fill="#ffffff" fill-opacity="1"><g transform="translate(225.533269, 68.297458)"><g><path d="M 7.84375 0.15625 C 6.96875 0.15625 6.15625 0.0664062 5.40625 -0.109375 C 4.664062 -0.285156 3.992188 -0.546875 3.390625 -0.890625 C 2.796875 -1.242188 2.289062 -1.675781 1.875 -2.1875 C 1.457031 -2.695312 1.132812 -3.285156 0.90625 -3.953125 C 0.6875 -4.617188 0.578125 -5.351562 0.578125 -6.15625 C 0.578125 -6.976562 0.6875 -7.71875 0.90625 -8.375 C 1.132812 -9.039062 1.457031 -9.628906 1.875 -10.140625 C 2.289062 -10.648438 2.796875 -11.078125 3.390625 -11.421875 C 3.992188 -11.773438 4.664062 -12.039062 5.40625 -12.21875 C 6.15625 -12.394531 6.96875 -12.484375 7.84375 -12.484375 C 8.78125 -12.484375 9.644531 -12.378906 10.4375 -12.171875 C 11.226562 -11.972656 11.929688 -11.675781 12.546875 -11.28125 C 13.160156 -10.882812 13.671875 -10.394531 14.078125 -9.8125 C 14.492188 -9.238281 14.785156 -8.570312 14.953125 -7.8125 L 11.46875 -7.8125 C 11.289062 -8.257812 11.03125 -8.625 10.6875 -8.90625 C 10.351562 -9.195312 9.945312 -9.410156 9.46875 -9.546875 C 8.988281 -9.691406 8.445312 -9.765625 7.84375 -9.765625 C 7.25 -9.765625 6.710938 -9.691406 6.234375 -9.546875 C 5.753906 -9.410156 5.34375 -9.195312 5 -8.90625 C 4.664062 -8.613281 4.40625 -8.238281 4.21875 -7.78125 C 4.039062 -7.332031 3.953125 -6.789062 3.953125 -6.15625 C 3.953125 -5.53125 4.039062 -4.988281 4.21875 -4.53125 C 4.40625 -4.070312 4.664062 -3.695312 5 -3.40625 C 5.34375 -3.113281 5.753906 -2.894531 6.234375 -2.75 C 6.710938 -2.613281 7.25 -2.546875 7.84375 -2.546875 C 8.53125 -2.546875 9.140625 -2.640625 9.671875 -2.828125 C 10.210938 -3.015625 10.648438 -3.300781 10.984375 -3.6875 C 11.328125 -4.082031 11.554688 -4.582031 11.671875 -5.1875 L 15.078125 -5.1875 C 14.992188 -4.5 14.816406 -3.875 14.546875 -3.3125 C 14.273438 -2.75 13.925781 -2.25 13.5 -1.8125 C 13.070312 -1.382812 12.570312 -1.019531 12 -0.71875 C 11.425781 -0.425781 10.789062 -0.207031 10.09375 -0.0625 C 9.394531 0.0820312 8.644531 0.15625 7.84375 0.15625 Z M 7.84375 0.15625 "/></g></g></g><g fill="#ffffff" fill-opacity="1"><g transform="translate(241.064023, 68.297458)"><g><path d="M 11.9375 -12.3125 L 11.9375 -9.53125 L 7.84375 -9.53125 L 7.84375 0 L 4.375 0 L 4.375 -9.53125 L 0.28125 -9.53125 L 0.28125 -12.3125 Z M 11.9375 -12.3125 "/></g></g></g></svg>