<svg xmlns="http://www.w3.org/2000/svg" xmlns:xlink="http://www.w3.org/1999/xlink" width="250" zoomAndPan="magnify" viewBox="0 0 187.5 30.000001" height="40" preserveAspectRatio="xMidYMid meet" version="1.0"><defs><g/><clipPath id="308cc9ba1a"><path d="M 22 7 L 53 7 L 53 22 L 22 22 Z M 22 7 " clip-rule="nonzero"/></clipPath><clipPath id="6907bcea3d"><path d="M 37.800781 -4.105469 L 56.277344 14.367188 L 37.800781 32.84375 L 19.324219 14.367188 Z M 37.800781 -4.105469 " clip-rule="nonzero"/></clipPath><clipPath id="1d84a30b78"><path d="M 37.800781 -4.105469 L 56.277344 14.367188 L 37.800781 32.84375 L 19.324219 14.367188 Z M 37.800781 -4.105469 " clip-rule="nonzero"/></clipPath></defs><g clip-path="url(#308cc9ba1a)"><g clip-path="url(#6907bcea3d)"><g clip-path="url(#1d84a30b78)"><path fill="#ffffff" d="M 46.105469 21.15625 L 39.460938 21.15625 C 35.792969 21.15625 32.816406 18.179688 32.820312 14.511719 C 32.816406 13.933594 32.917969 13.382812 33.050781 12.851562 L 36.140625 12.851562 C 36.289062 12.851562 36.421875 12.898438 36.558594 12.933594 C 36.300781 13.40625 36.140625 13.9375 36.140625 14.511719 C 36.140625 16.34375 37.632812 17.832031 39.460938 17.832031 L 46.105469 17.832031 C 47.9375 17.832031 49.429688 16.34375 49.429688 14.511719 C 49.429688 12.679688 47.9375 11.191406 46.105469 11.1875 L 43.742188 11.191406 C 43.15625 9.859375 42.226562 8.726562 41.070312 7.867188 L 46.105469 7.867188 C 49.777344 7.867188 52.75 10.84375 52.75 14.511719 C 52.75 18.179688 49.777344 21.15625 46.105469 21.15625 Z M 31.859375 17.832031 L 29.496094 17.835938 C 27.664062 17.832031 26.175781 16.34375 26.171875 14.511719 C 26.175781 12.679688 27.664062 11.191406 29.496094 11.1875 L 36.140625 11.191406 C 37.972656 11.191406 39.460938 12.679688 39.460938 14.511719 C 39.460938 15.082031 39.304688 15.617188 39.046875 16.085938 C 39.183594 16.125 39.316406 16.171875 39.460938 16.171875 L 42.550781 16.171875 C 42.6875 15.640625 42.785156 15.089844 42.785156 14.511719 C 42.785156 10.84375 39.808594 7.867188 36.140625 7.867188 L 29.496094 7.867188 C 25.828125 7.867188 22.851562 10.84375 22.851562 14.511719 C 22.851562 18.179688 25.828125 21.15625 29.496094 21.15625 L 34.53125 21.15625 C 33.378906 20.296875 32.445312 19.164062 31.859375 17.832031 Z M 31.859375 17.832031 " fill-opacity="1" fill-rule="nonzero"/></g></g></g><g fill="#ffffff" fill-opacity="1"><g transform="translate(56.426575, 20.131798)"><g><path d="M 7.765625 0.15625 C 6.898438 0.15625 6.097656 0.0664062 5.359375 -0.109375 C 4.617188 -0.285156 3.953125 -0.546875 3.359375 -0.890625 C 2.773438 -1.234375 2.273438 -1.65625 1.859375 -2.15625 C 1.441406 -2.664062 1.125 -3.25 0.90625 -3.90625 C 0.6875 -4.570312 0.578125 -5.304688 0.578125 -6.109375 C 0.578125 -6.910156 0.6875 -7.640625 0.90625 -8.296875 C 1.125 -8.960938 1.441406 -9.546875 1.859375 -10.046875 C 2.273438 -10.554688 2.773438 -10.984375 3.359375 -11.328125 C 3.953125 -11.671875 4.617188 -11.929688 5.359375 -12.109375 C 6.097656 -12.285156 6.898438 -12.375 7.765625 -12.375 C 8.703125 -12.375 9.5625 -12.269531 10.34375 -12.0625 C 11.125 -11.863281 11.816406 -11.566406 12.421875 -11.171875 C 13.035156 -10.785156 13.546875 -10.300781 13.953125 -9.71875 C 14.359375 -9.144531 14.644531 -8.484375 14.8125 -7.734375 L 11.375 -7.734375 C 11.195312 -8.179688 10.9375 -8.546875 10.59375 -8.828125 C 10.257812 -9.117188 9.851562 -9.332031 9.375 -9.46875 C 8.894531 -9.601562 8.359375 -9.671875 7.765625 -9.671875 C 7.179688 -9.671875 6.648438 -9.601562 6.171875 -9.46875 C 5.703125 -9.332031 5.296875 -9.117188 4.953125 -8.828125 C 4.617188 -8.535156 4.363281 -8.164062 4.1875 -7.71875 C 4.007812 -7.269531 3.921875 -6.734375 3.921875 -6.109375 C 3.921875 -5.484375 4.007812 -4.941406 4.1875 -4.484375 C 4.363281 -4.035156 4.617188 -3.664062 4.953125 -3.375 C 5.296875 -3.082031 5.703125 -2.867188 6.171875 -2.734375 C 6.648438 -2.597656 7.179688 -2.53125 7.765625 -2.53125 C 8.453125 -2.53125 9.054688 -2.617188 9.578125 -2.796875 C 10.109375 -2.984375 10.539062 -3.269531 10.875 -3.65625 C 11.21875 -4.039062 11.445312 -4.535156 11.5625 -5.140625 L 14.9375 -5.140625 C 14.851562 -4.460938 14.675781 -3.84375 14.40625 -3.28125 C 14.144531 -2.71875 13.800781 -2.222656 13.375 -1.796875 C 12.945312 -1.367188 12.453125 -1.007812 11.890625 -0.71875 C 11.328125 -0.425781 10.695312 -0.207031 10 -0.0625 C 9.3125 0.0820312 8.566406 0.15625 7.765625 0.15625 Z M 7.765625 0.15625 "/></g></g></g><g fill="#ffffff" fill-opacity="1"><g transform="translate(71.818598, 20.131798)"><g><path d="M 7.765625 0.15625 C 6.898438 0.15625 6.097656 0.0664062 5.359375 -0.109375 C 4.617188 -0.285156 3.953125 -0.546875 3.359375 -0.890625 C 2.773438 -1.234375 2.273438 -1.65625 1.859375 -2.15625 C 1.441406 -2.664062 1.125 -3.25 0.90625 -3.90625 C 0.6875 -4.570312 0.578125 -5.304688 0.578125 -6.109375 C 0.578125 -6.910156 0.6875 -7.640625 0.90625 -8.296875 C 1.125 -8.960938 1.441406 -9.546875 1.859375 -10.046875 C 2.273438 -10.554688 2.773438 -10.984375 3.359375 -11.328125 C 3.953125 -11.671875 4.617188 -11.929688 5.359375 -12.109375 C 6.097656 -12.285156 6.898438 -12.375 7.765625 -12.375 C 8.640625 -12.375 9.445312 -12.285156 10.1875 -12.109375 C 10.925781 -11.929688 11.59375 -11.671875 12.1875 -11.328125 C 12.78125 -10.984375 13.285156 -10.554688 13.703125 -10.046875 C 14.117188 -9.546875 14.4375 -8.960938 14.65625 -8.296875 C 14.875 -7.640625 14.984375 -6.910156 14.984375 -6.109375 C 14.984375 -5.304688 14.875 -4.570312 14.65625 -3.90625 C 14.4375 -3.25 14.117188 -2.664062 13.703125 -2.15625 C 13.285156 -1.65625 12.78125 -1.234375 12.1875 -0.890625 C 11.59375 -0.546875 10.925781 -0.285156 10.1875 -0.109375 C 9.445312 0.0664062 8.640625 0.15625 7.765625 0.15625 Z M 7.765625 -2.53125 C 8.367188 -2.53125 8.90625 -2.597656 9.375 -2.734375 C 9.851562 -2.867188 10.257812 -3.082031 10.59375 -3.375 C 10.9375 -3.664062 11.195312 -4.035156 11.375 -4.484375 C 11.5625 -4.941406 11.65625 -5.484375 11.65625 -6.109375 C 11.65625 -6.734375 11.5625 -7.269531 11.375 -7.71875 C 11.195312 -8.164062 10.9375 -8.535156 10.59375 -8.828125 C 10.257812 -9.117188 9.851562 -9.332031 9.375 -9.46875 C 8.90625 -9.601562 8.367188 -9.671875 7.765625 -9.671875 C 7.179688 -9.671875 6.648438 -9.601562 6.171875 -9.46875 C 5.703125 -9.332031 5.296875 -9.117188 4.953125 -8.828125 C 4.617188 -8.535156 4.363281 -8.164062 4.1875 -7.71875 C 4.007812 -7.269531 3.921875 -6.734375 3.921875 -6.109375 C 3.921875 -5.484375 4.007812 -4.941406 4.1875 -4.484375 C 4.363281 -4.035156 4.617188 -3.664062 4.953125 -3.375 C 5.296875 -3.082031 5.703125 -2.867188 6.171875 -2.734375 C 6.648438 -2.597656 7.179688 -2.53125 7.765625 -2.53125 Z M 7.765625 -2.53125 "/></g></g></g><g fill="#ffffff" fill-opacity="1"><g transform="translate(87.37129, 20.131798)"><g><path d="M 10.625 -12.203125 L 14.078125 -12.203125 L 14.078125 0 L 9.4375 0 L 4.84375 -8.109375 L 4.84375 0 L 1.390625 0 L 1.390625 -12.203125 L 6.046875 -12.203125 L 10.625 -4.15625 Z M 10.625 -12.203125 "/></g></g></g><g fill="#ffffff" fill-opacity="1"><g transform="translate(102.835615, 20.131798)"><g><path d="M 10.625 -12.203125 L 14.078125 -12.203125 L 14.078125 0 L 9.4375 0 L 4.84375 -8.109375 L 4.84375 0 L 1.390625 0 L 1.390625 -12.203125 L 6.046875 -12.203125 L 10.625 -4.15625 Z M 10.625 -12.203125 "/></g></g></g><g fill="#ffffff" fill-opacity="1"><g transform="translate(118.299939, 20.131798)"><g><path d="M 4.875 -2.765625 L 12.28125 -2.765625 L 12.28125 0 L 1.390625 0 L 1.390625 -12.203125 L 11.875 -12.203125 L 11.875 -9.453125 L 4.875 -9.453125 L 4.875 -7.46875 L 9.046875 -7.46875 L 9.046875 -5.0625 L 4.875 -5.0625 Z M 4.875 -2.765625 "/></g></g></g><g fill="#ffffff" fill-opacity="1"><g transform="translate(131.201604, 20.131798)"><g><path d="M 7.765625 0.15625 C 6.898438 0.15625 6.097656 0.0664062 5.359375 -0.109375 C 4.617188 -0.285156 3.953125 -0.546875 3.359375 -0.890625 C 2.773438 -1.234375 2.273438 -1.65625 1.859375 -2.15625 C 1.441406 -2.664062 1.125 -3.25 0.90625 -3.90625 C 0.6875 -4.570312 0.578125 -5.304688 0.578125 -6.109375 C 0.578125 -6.910156 0.6875 -7.640625 0.90625 -8.296875 C 1.125 -8.960938 1.441406 -9.546875 1.859375 -10.046875 C 2.273438 -10.554688 2.773438 -10.984375 3.359375 -11.328125 C 3.953125 -11.671875 4.617188 -11.929688 5.359375 -12.109375 C 6.097656 -12.285156 6.898438 -12.375 7.765625 -12.375 C 8.703125 -12.375 9.5625 -12.269531 10.34375 -12.0625 C 11.125 -11.863281 11.816406 -11.566406 12.421875 -11.171875 C 13.035156 -10.785156 13.546875 -10.300781 13.953125 -9.71875 C 14.359375 -9.144531 14.644531 -8.484375 14.8125 -7.734375 L 11.375 -7.734375 C 11.195312 -8.179688 10.9375 -8.546875 10.59375 -8.828125 C 10.257812 -9.117188 9.851562 -9.332031 9.375 -9.46875 C 8.894531 -9.601562 8.359375 -9.671875 7.765625 -9.671875 C 7.179688 -9.671875 6.648438 -9.601562 6.171875 -9.46875 C 5.703125 -9.332031 5.296875 -9.117188 4.953125 -8.828125 C 4.617188 -8.535156 4.363281 -8.164062 4.1875 -7.71875 C 4.007812 -7.269531 3.921875 -6.734375 3.921875 -6.109375 C 3.921875 -5.484375 4.007812 -4.941406 4.1875 -4.484375 C 4.363281 -4.035156 4.617188 -3.664062 4.953125 -3.375 C 5.296875 -3.082031 5.703125 -2.867188 6.171875 -2.734375 C 6.648438 -2.597656 7.179688 -2.53125 7.765625 -2.53125 C 8.453125 -2.53125 9.054688 -2.617188 9.578125 -2.796875 C 10.109375 -2.984375 10.539062 -3.269531 10.875 -3.65625 C 11.21875 -4.039062 11.445312 -4.535156 11.5625 -5.140625 L 14.9375 -5.140625 C 14.851562 -4.460938 14.675781 -3.84375 14.40625 -3.28125 C 14.144531 -2.71875 13.800781 -2.222656 13.375 -1.796875 C 12.945312 -1.367188 12.453125 -1.007812 11.890625 -0.71875 C 11.328125 -0.425781 10.695312 -0.207031 10 -0.0625 C 9.3125 0.0820312 8.566406 0.15625 7.765625 0.15625 Z M 7.765625 0.15625 "/></g></g></g><g fill="#ffffff" fill-opacity="1"><g transform="translate(146.593628, 20.131798)"><g><path d="M 11.828125 -12.203125 L 11.828125 -9.453125 L 7.78125 -9.453125 L 7.78125 0 L 4.328125 0 L 4.328125 -9.453125 L 0.28125 -9.453125 L 0.28125 -12.203125 Z M 11.828125 -12.203125 "/></g></g></g></svg>